<svg width="21" height="10" viewBox="0 0 21 10" fill="none" xmlns="http://www.w3.org/2000/svg">
<path d="M2.73746 5C2.73746 3.29 4.06954 1.9 5.70829 1.9H9.54163V0H5.70829C3.06329 0 0.916626 2.24 0.916626 5C0.916626 7.76 3.06329 10 5.70829 10H9.54163V8.1H5.70829C4.06954 8.1 2.73746 6.71 2.73746 5ZM6.66663 6H14.3333V4H6.66663V6ZM15.2916 0H11.4583V1.9H15.2916C16.9304 1.9 18.2625 3.29 18.2625 5C18.2625 6.71 16.9304 8.1 15.2916 8.1H11.4583V10H15.2916C17.9366 10 20.0833 7.76 20.0833 5C20.0833 2.24 17.9366 0 15.2916 0Z" fill="black" fill-opacity="0.54"/>
</svg>
